<svg class="railroad-diagram" height="88" viewBox="0 0 346.5 88" width="346.5" xmlns="http://www.w3.org/2000/svg">
<g transform="translate(.5 .5)">
<style>/* <![CDATA[ */
	svg.railroad-diagram {
		background-color:hsl(30,20%,95%);
	}
	svg.railroad-diagram path {
		stroke-width:3;
		stroke:black;
		fill:rgba(0,0,0,0);
	}
	svg.railroad-diagram text {
		font:bold 14px monospace;
		text-anchor:middle;
	}
	svg.railroad-diagram text.label{
		text-anchor:start;
	}
	svg.railroad-diagram text.comment{
		font:italic 12px monospace;
	}
	svg.railroad-diagram rect{
		stroke-width:3;
		stroke:black;
		fill:hsl(120,100%,90%);
	}
	svg.railroad-diagram rect.group-box {
		stroke: gray;
		stroke-dasharray: 10 5;
		fill: none;
	}

/* ]]> */
</style><g>
<path d="M20 38v20m10 -20v20m-10 -10h20"></path></g><g>
<path d="M40 48h0.0"></path><path d="M306.5 48h0.0"></path><path d="M40.0 48a10 10 0 0 0 10 -10v-8a10 10 0 0 1 10 -10"></path><g>
<path d="M60.0 20h226.5"></path></g><path d="M286.5 20a10 10 0 0 1 10 10v8a10 10 0 0 0 10 10"></path><path d="M40.0 48h20"></path><g>
<path d="M60.0 48h0.0"></path><path d="M286.5 48h0.0"></path><g class="terminal ">
<path d="M60.0 48h0.0"></path><path d="M114.0 48h0.0"></path><rect height="22" rx="10" ry="10" width="54.0" x="60.0" y="37"></rect><text x="87.0" y="52">&#60;Id></text></g><path d="M114.0 48h10"></path><g>
<path d="M124.0 48h0.0"></path><path d="M286.5 48h0.0"></path><path d="M124.0 48a10 10 0 0 0 10 -10v0a10 10 0 0 1 10 -10"></path><g>
<path d="M144.0 28h122.5"></path></g><path d="M266.5 28a10 10 0 0 1 10 10v0a10 10 0 0 0 10 10"></path><path d="M124.0 48h20"></path><g>
<path d="M144.0 48h0.0"></path><path d="M266.5 48h0.0"></path><path d="M144.0 48h10"></path><g>
<path d="M154.0 48h0.0"></path><path d="M256.5 48h0.0"></path><g class="terminal ">
<path d="M154.0 48h0.0"></path><path d="M182.5 48h0.0"></path><rect height="22" rx="10" ry="10" width="28.5" x="154.0" y="37"></rect><text x="168.25" y="52">,</text></g><path d="M182.5 48h10"></path><path d="M192.5 48h10"></path><g class="terminal ">
<path d="M202.5 48h0.0"></path><path d="M256.5 48h0.0"></path><rect height="22" rx="10" ry="10" width="54.0" x="202.5" y="37"></rect><text x="229.5" y="52">&#60;Id></text></g></g><path d="M256.5 48h10"></path><path d="M154.0 48a10 10 0 0 0 -10 10v0a10 10 0 0 0 10 10"></path><g>
<path d="M154.0 68h102.5"></path></g><path d="M256.5 68a10 10 0 0 0 10 -10v0a10 10 0 0 0 -10 -10"></path></g><path d="M266.5 48h20"></path></g></g><path d="M286.5 48h20"></path></g><path d="M 306.5 48 h 20 m -10 -10 v 20 m 10 -20 v 20"></path></g></svg>