<svg class="railroad-diagram" height="92" viewBox="0 0 512.5 92" width="512.5" xmlns="http://www.w3.org/2000/svg">
<g transform="translate(.5 .5)">
<style>/* <![CDATA[ */
	svg.railroad-diagram {
		background-color:hsl(30,20%,95%);
	}
	svg.railroad-diagram path {
		stroke-width:3;
		stroke:black;
		fill:rgba(0,0,0,0);
	}
	svg.railroad-diagram text {
		font:bold 14px monospace;
		text-anchor:middle;
	}
	svg.railroad-diagram text.label{
		text-anchor:start;
	}
	svg.railroad-diagram text.comment{
		font:italic 12px monospace;
	}
	svg.railroad-diagram rect{
		stroke-width:3;
		stroke:black;
		fill:hsl(120,100%,90%);
	}
	svg.railroad-diagram rect.group-box {
		stroke: gray;
		stroke-dasharray: 10 5;
		fill: none;
	}

/* ]]> */
</style><g>
<path d="M20 51v20m10 -20v20m-10 -10h20"></path></g><g>
<path d="M40 61h0.0"></path><path d="M472.5 61h0.0"></path><path d="M40.0 61a10 10 0 0 0 10 -10v-10a10 10 0 0 1 10 -10"></path><g>
<path d="M60.0 31h48.5"></path><path d="M404.0 31h48.5"></path><g class="terminal ">
<path d="M108.5 31h0.0"></path><path d="M179.5 31h0.0"></path><rect height="22" rx="10" ry="10" width="71.0" x="108.5" y="20"></rect><text x="144.0" y="35">&#60;Expr></text></g><path d="M179.5 31h10"></path><path d="M189.5 31h10"></path><g class="terminal ">
<path d="M199.5 31h0.0"></path><path d="M313.0 31h0.0"></path><rect height="22" rx="10" ry="10" width="113.5" x="199.5" y="20"></rect><text x="256.25" y="35">&#60;BinaryOpr></text></g><path d="M313.0 31h10"></path><path d="M323.0 31h10"></path><g class="terminal ">
<path d="M333.0 31h0.0"></path><path d="M404.0 31h0.0"></path><rect height="22" rx="10" ry="10" width="71.0" x="333.0" y="20"></rect><text x="368.5" y="35">&#60;Expr></text></g></g><path d="M452.5 31a10 10 0 0 1 10 10v10a10 10 0 0 0 10 10"></path><path d="M40.0 61h20"></path><g>
<path d="M60.0 61h0.0"></path><path d="M452.5 61h0.0"></path><g class="terminal ">
<path d="M60.0 61h0.0"></path><path d="M88.5 61h0.0"></path><rect height="22" rx="10" ry="10" width="28.5" x="60.0" y="50"></rect><text x="74.25" y="65">(</text></g><path d="M88.5 61h10"></path><path d="M98.5 61h10"></path><g class="terminal ">
<path d="M108.5 61h0.0"></path><path d="M179.5 61h0.0"></path><rect height="22" rx="10" ry="10" width="71.0" x="108.5" y="50"></rect><text x="144.0" y="65">&#60;Expr></text></g><path d="M179.5 61h10"></path><path d="M189.5 61h10"></path><g class="terminal ">
<path d="M199.5 61h0.0"></path><path d="M313.0 61h0.0"></path><rect height="22" rx="10" ry="10" width="113.5" x="199.5" y="50"></rect><text x="256.25" y="65">&#60;BinaryOpr></text></g><path d="M313.0 61h10"></path><path d="M323.0 61h10"></path><g class="terminal ">
<path d="M333.0 61h0.0"></path><path d="M404.0 61h0.0"></path><rect height="22" rx="10" ry="10" width="71.0" x="333.0" y="50"></rect><text x="368.5" y="65">&#60;Expr></text></g><path d="M404.0 61h10"></path><path d="M414.0 61h10"></path><g class="terminal ">
<path d="M424.0 61h0.0"></path><path d="M452.5 61h0.0"></path><rect height="22" rx="10" ry="10" width="28.5" x="424.0" y="50"></rect><text x="438.25" y="65">)</text></g></g><path d="M452.5 61h20"></path></g><path d="M 472.5 61 h 20 m -10 -10 v 20 m 10 -20 v 20"></path></g></svg>