<svg class="railroad-diagram" height="392" viewBox="0 0 157.0 392" width="157.0" xmlns="http://www.w3.org/2000/svg">
<g transform="translate(.5 .5)">
<style>/* <![CDATA[ */
	svg.railroad-diagram {
		background-color:hsl(30,20%,95%);
	}
	svg.railroad-diagram path {
		stroke-width:3;
		stroke:black;
		fill:rgba(0,0,0,0);
	}
	svg.railroad-diagram text {
		font:bold 14px monospace;
		text-anchor:middle;
	}
	svg.railroad-diagram text.label{
		text-anchor:start;
	}
	svg.railroad-diagram text.comment{
		font:italic 12px monospace;
	}
	svg.railroad-diagram rect{
		stroke-width:3;
		stroke:black;
		fill:hsl(120,100%,90%);
	}
	svg.railroad-diagram rect.group-box {
		stroke: gray;
		stroke-dasharray: 10 5;
		fill: none;
	}

/* ]]> */
</style><g>
<path d="M20 201v20m10 -20v20m-10 -10h20"></path></g><g>
<path d="M40 211h0.0"></path><path d="M117.0 211h0.0"></path><path d="M40.0 211a10 10 0 0 0 10 -10v-10a10 10 0 0 1 10 -10"></path><g class="terminal ">
<path d="M60.0 181h0.0"></path><path d="M97.0 181h0.0"></path><rect height="22" rx="10" ry="10" width="37.0" x="60.0" y="170"></rect><text x="78.5" y="185">==</text></g><path d="M97.0 181a10 10 0 0 1 10 10v10a10 10 0 0 0 10 10"></path><path d="M40.0 211a10 10 0 0 0 10 -10v-40a10 10 0 0 1 10 -10"></path><g class="terminal ">
<path d="M60.0 151h4.25"></path><path d="M92.75 151h4.25"></path><rect height="22" rx="10" ry="10" width="28.5" x="64.25" y="140"></rect><text x="78.5" y="155">%</text></g><path d="M97.0 151a10 10 0 0 1 10 10v40a10 10 0 0 0 10 10"></path><path d="M40.0 211a10 10 0 0 0 10 -10v-70a10 10 0 0 1 10 -10"></path><g class="terminal ">
<path d="M60.0 121h4.25"></path><path d="M92.75 121h4.25"></path><rect height="22" rx="10" ry="10" width="28.5" x="64.25" y="110"></rect><text x="78.5" y="125">/</text></g><path d="M97.0 121a10 10 0 0 1 10 10v70a10 10 0 0 0 10 10"></path><path d="M40.0 211a10 10 0 0 0 10 -10v-100a10 10 0 0 1 10 -10"></path><g class="terminal ">
<path d="M60.0 91h4.25"></path><path d="M92.75 91h4.25"></path><rect height="22" rx="10" ry="10" width="28.5" x="64.25" y="80"></rect><text x="78.5" y="95">&#42;</text></g><path d="M97.0 91a10 10 0 0 1 10 10v100a10 10 0 0 0 10 10"></path><path d="M40.0 211a10 10 0 0 0 10 -10v-130a10 10 0 0 1 10 -10"></path><g class="terminal ">
<path d="M60.0 61h4.25"></path><path d="M92.75 61h4.25"></path><rect height="22" rx="10" ry="10" width="28.5" x="64.25" y="50"></rect><text x="78.5" y="65">-</text></g><path d="M97.0 61a10 10 0 0 1 10 10v130a10 10 0 0 0 10 10"></path><path d="M40.0 211a10 10 0 0 0 10 -10v-160a10 10 0 0 1 10 -10"></path><g class="terminal ">
<path d="M60.0 31h4.25"></path><path d="M92.75 31h4.25"></path><rect height="22" rx="10" ry="10" width="28.5" x="64.25" y="20"></rect><text x="78.5" y="35">+</text></g><path d="M97.0 31a10 10 0 0 1 10 10v160a10 10 0 0 0 10 10"></path><path d="M40.0 211h20"></path><g class="terminal ">
<path d="M60.0 211h0.0"></path><path d="M97.0 211h0.0"></path><rect height="22" rx="10" ry="10" width="37.0" x="60.0" y="200"></rect><text x="78.5" y="215">!=</text></g><path d="M97.0 211h20"></path><path d="M40.0 211a10 10 0 0 1 10 10v10a10 10 0 0 0 10 10"></path><g class="terminal ">
<path d="M60.0 241h4.25"></path><path d="M92.75 241h4.25"></path><rect height="22" rx="10" ry="10" width="28.5" x="64.25" y="230"></rect><text x="78.5" y="245">&#60;</text></g><path d="M97.0 241a10 10 0 0 0 10 -10v-10a10 10 0 0 1 10 -10"></path><path d="M40.0 211a10 10 0 0 1 10 10v40a10 10 0 0 0 10 10"></path><g class="terminal ">
<path d="M60.0 271h4.25"></path><path d="M92.75 271h4.25"></path><rect height="22" rx="10" ry="10" width="28.5" x="64.25" y="260"></rect><text x="78.5" y="275">></text></g><path d="M97.0 271a10 10 0 0 0 10 -10v-40a10 10 0 0 1 10 -10"></path><path d="M40.0 211a10 10 0 0 1 10 10v70a10 10 0 0 0 10 10"></path><g class="terminal ">
<path d="M60.0 301h0.0"></path><path d="M97.0 301h0.0"></path><rect height="22" rx="10" ry="10" width="37.0" x="60.0" y="290"></rect><text x="78.5" y="305">&#60;=</text></g><path d="M97.0 301a10 10 0 0 0 10 -10v-70a10 10 0 0 1 10 -10"></path><path d="M40.0 211a10 10 0 0 1 10 10v100a10 10 0 0 0 10 10"></path><g class="terminal ">
<path d="M60.0 331h0.0"></path><path d="M97.0 331h0.0"></path><rect height="22" rx="10" ry="10" width="37.0" x="60.0" y="320"></rect><text x="78.5" y="335">>=</text></g><path d="M97.0 331a10 10 0 0 0 10 -10v-100a10 10 0 0 1 10 -10"></path><path d="M40.0 211a10 10 0 0 1 10 10v130a10 10 0 0 0 10 10"></path><g class="terminal ">
<path d="M60.0 361h0.0"></path><path d="M97.0 361h0.0"></path><rect height="22" rx="10" ry="10" width="37.0" x="60.0" y="350"></rect><text x="78.5" y="365">++</text></g><path d="M97.0 361a10 10 0 0 0 10 -10v-130a10 10 0 0 1 10 -10"></path></g><path d="M 117.0 211 h 20 m -10 -10 v 20 m 10 -20 v 20"></path></g></svg>