<svg class="railroad-diagram" height="88" viewBox="0 0 448.5 88" width="448.5" xmlns="http://www.w3.org/2000/svg">
<g transform="translate(.5 .5)">
<style>/* <![CDATA[ */
	svg.railroad-diagram {
		background-color:hsl(30,20%,95%);
	}
	svg.railroad-diagram path {
		stroke-width:3;
		stroke:black;
		fill:rgba(0,0,0,0);
	}
	svg.railroad-diagram text {
		font:bold 14px monospace;
		text-anchor:middle;
	}
	svg.railroad-diagram text.label{
		text-anchor:start;
	}
	svg.railroad-diagram text.comment{
		font:italic 12px monospace;
	}
	svg.railroad-diagram rect{
		stroke-width:3;
		stroke:black;
		fill:hsl(120,100%,90%);
	}
	svg.railroad-diagram rect.group-box {
		stroke: gray;
		stroke-dasharray: 10 5;
		fill: none;
	}

/* ]]> */
</style><g>
<path d="M20 38v20m10 -20v20m-10 -10h20"></path></g><g>
<path d="M40 48h0.0"></path><path d="M408.5 48h0.0"></path><path d="M40.0 48a10 10 0 0 0 10 -10v-8a10 10 0 0 1 10 -10"></path><g>
<path d="M60.0 20h328.5"></path></g><path d="M388.5 20a10 10 0 0 1 10 10v8a10 10 0 0 0 10 10"></path><path d="M40.0 48h20"></path><g>
<path d="M60.0 48h0.0"></path><path d="M388.5 48h0.0"></path><g class="terminal ">
<path d="M60.0 48h0.0"></path><path d="M165.0 48h0.0"></path><rect height="22" rx="10" ry="10" width="105.0" x="60.0" y="37"></rect><text x="112.5" y="52">&#60;DataProp></text></g><path d="M165.0 48h10"></path><g>
<path d="M175.0 48h0.0"></path><path d="M388.5 48h0.0"></path><path d="M175.0 48a10 10 0 0 0 10 -10v0a10 10 0 0 1 10 -10"></path><g>
<path d="M195.0 28h173.5"></path></g><path d="M368.5 28a10 10 0 0 1 10 10v0a10 10 0 0 0 10 10"></path><path d="M175.0 48h20"></path><g>
<path d="M195.0 48h0.0"></path><path d="M368.5 48h0.0"></path><path d="M195.0 48h10"></path><g>
<path d="M205.0 48h0.0"></path><path d="M358.5 48h0.0"></path><g class="terminal ">
<path d="M205.0 48h0.0"></path><path d="M233.5 48h0.0"></path><rect height="22" rx="10" ry="10" width="28.5" x="205.0" y="37"></rect><text x="219.25" y="52">,</text></g><path d="M233.5 48h10"></path><path d="M243.5 48h10"></path><g class="terminal ">
<path d="M253.5 48h0.0"></path><path d="M358.5 48h0.0"></path><rect height="22" rx="10" ry="10" width="105.0" x="253.5" y="37"></rect><text x="306.0" y="52">&#60;DataProp></text></g></g><path d="M358.5 48h10"></path><path d="M205.0 48a10 10 0 0 0 -10 10v0a10 10 0 0 0 10 10"></path><g>
<path d="M205.0 68h153.5"></path></g><path d="M358.5 68a10 10 0 0 0 10 -10v0a10 10 0 0 0 -10 -10"></path></g><path d="M368.5 48h20"></path></g></g><path d="M388.5 48h20"></path></g><path d="M 408.5 48 h 20 m -10 -10 v 20 m 10 -20 v 20"></path></g></svg>