<svg class="railroad-diagram" height="212" viewBox="0 0 250.5 212" width="250.5" xmlns="http://www.w3.org/2000/svg">
<g transform="translate(.5 .5)">
<style>/* <![CDATA[ */
	svg.railroad-diagram {
		background-color:hsl(30,20%,95%);
	}
	svg.railroad-diagram path {
		stroke-width:3;
		stroke:black;
		fill:rgba(0,0,0,0);
	}
	svg.railroad-diagram text {
		font:bold 14px monospace;
		text-anchor:middle;
	}
	svg.railroad-diagram text.label{
		text-anchor:start;
	}
	svg.railroad-diagram text.comment{
		font:italic 12px monospace;
	}
	svg.railroad-diagram rect{
		stroke-width:3;
		stroke:black;
		fill:hsl(120,100%,90%);
	}
	svg.railroad-diagram rect.group-box {
		stroke: gray;
		stroke-dasharray: 10 5;
		fill: none;
	}

/* ]]> */
</style><g>
<path d="M20 111v20m10 -20v20m-10 -10h20"></path></g><g>
<path d="M40 121h0.0"></path><path d="M210.5 121h0.0"></path><path d="M40.0 121a10 10 0 0 0 10 -10v-10a10 10 0 0 1 10 -10"></path><g class="terminal ">
<path d="M60.0 91h8.5"></path><path d="M182.0 91h8.5"></path><rect height="22" rx="10" ry="10" width="113.5" x="68.5" y="80"></rect><text x="125.25" y="95">&#60;UnaryExpr></text></g><path d="M190.5 91a10 10 0 0 1 10 10v10a10 10 0 0 0 10 10"></path><path d="M40.0 121a10 10 0 0 0 10 -10v-40a10 10 0 0 1 10 -10"></path><g class="terminal ">
<path d="M60.0 61h17.0"></path><path d="M173.5 61h17.0"></path><rect height="22" rx="10" ry="10" width="96.5" x="77.0" y="50"></rect><text x="125.25" y="65">&#60;Literal></text></g><path d="M190.5 61a10 10 0 0 1 10 10v40a10 10 0 0 0 10 10"></path><path d="M40.0 121a10 10 0 0 0 10 -10v-70a10 10 0 0 1 10 -10"></path><g class="terminal ">
<path d="M60.0 31h38.25"></path><path d="M152.25 31h38.25"></path><rect height="22" rx="10" ry="10" width="54.0" x="98.25" y="20"></rect><text x="125.25" y="35">&#60;Id></text></g><path d="M190.5 31a10 10 0 0 1 10 10v70a10 10 0 0 0 10 10"></path><path d="M40.0 121h20"></path><g class="terminal ">
<path d="M60.0 121h4.25"></path><path d="M186.25 121h4.25"></path><rect height="22" rx="10" ry="10" width="122.0" x="64.25" y="110"></rect><text x="125.25" y="125">&#60;BinaryExpr></text></g><path d="M190.5 121h20"></path><path d="M40.0 121a10 10 0 0 1 10 10v10a10 10 0 0 0 10 10"></path><g class="terminal ">
<path d="M60.0 151h0.0"></path><path d="M190.5 151h0.0"></path><rect height="22" rx="10" ry="10" width="130.5" x="60.0" y="140"></rect><text x="125.25" y="155">&#60;TernaryExpr></text></g><path d="M190.5 151a10 10 0 0 0 10 -10v-10a10 10 0 0 1 10 -10"></path><path d="M40.0 121a10 10 0 0 1 10 10v40a10 10 0 0 0 10 10"></path><g class="terminal ">
<path d="M60.0 181h21.25"></path><path d="M169.25 181h21.25"></path><rect height="22" rx="10" ry="10" width="88.0" x="81.25" y="170"></rect><text x="125.25" y="185">&#60;FnExpr></text></g><path d="M190.5 181a10 10 0 0 0 10 -10v-40a10 10 0 0 1 10 -10"></path></g><path d="M 210.5 121 h 20 m -10 -10 v 20 m 10 -20 v 20"></path></g></svg>