<svg class="railroad-diagram" height="62" viewBox="0 0 416.0 62" width="416.0" xmlns="http://www.w3.org/2000/svg">
<g transform="translate(.5 .5)">
<style>/* <![CDATA[ */
	svg.railroad-diagram {
		background-color:hsl(30,20%,95%);
	}
	svg.railroad-diagram path {
		stroke-width:3;
		stroke:black;
		fill:rgba(0,0,0,0);
	}
	svg.railroad-diagram text {
		font:bold 14px monospace;
		text-anchor:middle;
	}
	svg.railroad-diagram text.label{
		text-anchor:start;
	}
	svg.railroad-diagram text.comment{
		font:italic 12px monospace;
	}
	svg.railroad-diagram rect{
		stroke-width:3;
		stroke:black;
		fill:hsl(120,100%,90%);
	}
	svg.railroad-diagram rect.group-box {
		stroke: gray;
		stroke-dasharray: 10 5;
		fill: none;
	}

/* ]]> */
</style><g>
<path d="M20 21v20m10 -20v20m-10 -10h20"></path></g><path d="M40 31h10"></path><g>
<path d="M50 31h0.0"></path><path d="M366.0 31h0.0"></path><g class="terminal ">
<path d="M50.0 31h0.0"></path><path d="M78.5 31h0.0"></path><rect height="22" rx="10" ry="10" width="28.5" x="50.0" y="20"></rect><text x="64.25" y="35">(</text></g><path d="M78.5 31h10"></path><path d="M88.5 31h10"></path><g class="terminal ">
<path d="M98.5 31h0.0"></path><path d="M169.5 31h0.0"></path><rect height="22" rx="10" ry="10" width="71.0" x="98.5" y="20"></rect><text x="134.0" y="35">&#60;Args></text></g><path d="M169.5 31h10"></path><path d="M179.5 31h10"></path><g class="terminal ">
<path d="M189.5 31h0.0"></path><path d="M218.0 31h0.0"></path><rect height="22" rx="10" ry="10" width="28.5" x="189.5" y="20"></rect><text x="203.75" y="35">)</text></g><path d="M218.0 31h10"></path><path d="M228.0 31h10"></path><g class="terminal ">
<path d="M238.0 31h0.0"></path><path d="M275.0 31h0.0"></path><rect height="22" rx="10" ry="10" width="37.0" x="238.0" y="20"></rect><text x="256.5" y="35">=></text></g><path d="M275.0 31h10"></path><path d="M285.0 31h10"></path><g class="terminal ">
<path d="M295.0 31h0.0"></path><path d="M366.0 31h0.0"></path><rect height="22" rx="10" ry="10" width="71.0" x="295.0" y="20"></rect><text x="330.5" y="35">&#60;Expr></text></g></g><path d="M366.0 31h10"></path><path d="M 376.0 31 h 20 m -10 -10 v 20 m 10 -20 v 20"></path></g></svg>