<svg class="railroad-diagram" height="80" viewBox="0 0 308.0 80" width="308.0" xmlns="http://www.w3.org/2000/svg">
<g transform="translate(.5 .5)">
<style>/* <![CDATA[ */
	svg.railroad-diagram {
		background-color:hsl(30,20%,95%);
	}
	svg.railroad-diagram path {
		stroke-width:3;
		stroke:black;
		fill:rgba(0,0,0,0);
	}
	svg.railroad-diagram text {
		font:bold 14px monospace;
		text-anchor:middle;
	}
	svg.railroad-diagram text.label{
		text-anchor:start;
	}
	svg.railroad-diagram text.comment{
		font:italic 12px monospace;
	}
	svg.railroad-diagram rect{
		stroke-width:3;
		stroke:black;
		fill:hsl(120,100%,90%);
	}
	svg.railroad-diagram rect.group-box {
		stroke: gray;
		stroke-dasharray: 10 5;
		fill: none;
	}

/* ]]> */
</style><g>
<path d="M20 30v20m10 -20v20m-10 -10h20"></path></g><path d="M40 40h10"></path><g>
<path d="M50 40h0.0"></path><path d="M258.0 40h0.0"></path><g class="terminal ">
<path d="M50.0 40h0.0"></path><path d="M78.5 40h0.0"></path><rect height="22" rx="10" ry="10" width="28.5" x="50.0" y="29"></rect><text x="64.25" y="44">&#91;</text></g><path d="M78.5 40h10"></path><g>
<path d="M88.5 40h0.0"></path><path d="M219.5 40h0.0"></path><path d="M88.5 40a10 10 0 0 0 10 -10v0a10 10 0 0 1 10 -10"></path><g>
<path d="M108.5 20h91.0"></path></g><path d="M199.5 20a10 10 0 0 1 10 10v0a10 10 0 0 0 10 10"></path><path d="M88.5 40h20"></path><g>
<path d="M108.5 40h0.0"></path><path d="M199.5 40h0.0"></path><path d="M108.5 40h10"></path><g class="terminal ">
<path d="M118.5 40h0.0"></path><path d="M189.5 40h0.0"></path><rect height="22" rx="10" ry="10" width="71.0" x="118.5" y="29"></rect><text x="154.0" y="44">&#60;Expr></text></g><path d="M189.5 40h10"></path><path d="M118.5 40a10 10 0 0 0 -10 10v0a10 10 0 0 0 10 10"></path><g>
<path d="M118.5 60h71.0"></path></g><path d="M189.5 60a10 10 0 0 0 10 -10v0a10 10 0 0 0 -10 -10"></path></g><path d="M199.5 40h20"></path></g><path d="M219.5 40h10"></path><g class="terminal ">
<path d="M229.5 40h0.0"></path><path d="M258.0 40h0.0"></path><rect height="22" rx="10" ry="10" width="28.5" x="229.5" y="29"></rect><text x="243.75" y="44">&#93;</text></g></g><path d="M258.0 40h10"></path><path d="M 268.0 40 h 20 m -10 -10 v 20 m 10 -20 v 20"></path></g></svg>