<svg class="railroad-diagram" height="62" viewBox="0 0 302.0 62" width="302.0" xmlns="http://www.w3.org/2000/svg">
<g transform="translate(.5 .5)">
<style>/* <![CDATA[ */
	svg.railroad-diagram {
		background-color:hsl(30,20%,95%);
	}
	svg.railroad-diagram path {
		stroke-width:3;
		stroke:black;
		fill:rgba(0,0,0,0);
	}
	svg.railroad-diagram text {
		font:bold 14px monospace;
		text-anchor:middle;
	}
	svg.railroad-diagram text.label{
		text-anchor:start;
	}
	svg.railroad-diagram text.comment{
		font:italic 12px monospace;
	}
	svg.railroad-diagram rect{
		stroke-width:3;
		stroke:black;
		fill:hsl(120,100%,90%);
	}
	svg.railroad-diagram rect.group-box {
		stroke: gray;
		stroke-dasharray: 10 5;
		fill: none;
	}

/* ]]> */
</style><g>
<path d="M20 21v20m10 -20v20m-10 -10h20"></path></g><path d="M40 31h10"></path><g>
<path d="M50 31h0.0"></path><path d="M252.0 31h0.0"></path><g class="terminal ">
<path d="M50.0 31h0.0"></path><path d="M78.5 31h0.0"></path><rect height="22" rx="10" ry="10" width="28.5" x="50.0" y="20"></rect><text x="64.25" y="35">{</text></g><path d="M78.5 31h10"></path><path d="M88.5 31h10"></path><g class="terminal ">
<path d="M98.5 31h0.0"></path><path d="M203.5 31h0.0"></path><rect height="22" rx="10" ry="10" width="105.0" x="98.5" y="20"></rect><text x="151.0" y="35">&#60;MapProps></text></g><path d="M203.5 31h10"></path><path d="M213.5 31h10"></path><g class="terminal ">
<path d="M223.5 31h0.0"></path><path d="M252.0 31h0.0"></path><rect height="22" rx="10" ry="10" width="28.5" x="223.5" y="20"></rect><text x="237.75" y="35">}</text></g></g><path d="M252.0 31h10"></path><path d="M 262.0 31 h 20 m -10 -10 v 20 m 10 -20 v 20"></path></g></svg>