<svg class="railroad-diagram" height="88" viewBox="0 0 431.5 88" width="431.5" xmlns="http://www.w3.org/2000/svg">
<g transform="translate(.5 .5)">
<style>/* <![CDATA[ */
	svg.railroad-diagram {
		background-color:hsl(30,20%,95%);
	}
	svg.railroad-diagram path {
		stroke-width:3;
		stroke:black;
		fill:rgba(0,0,0,0);
	}
	svg.railroad-diagram text {
		font:bold 14px monospace;
		text-anchor:middle;
	}
	svg.railroad-diagram text.label{
		text-anchor:start;
	}
	svg.railroad-diagram text.comment{
		font:italic 12px monospace;
	}
	svg.railroad-diagram rect{
		stroke-width:3;
		stroke:black;
		fill:hsl(120,100%,90%);
	}
	svg.railroad-diagram rect.group-box {
		stroke: gray;
		stroke-dasharray: 10 5;
		fill: none;
	}

/* ]]> */
</style><g>
<path d="M20 38v20m10 -20v20m-10 -10h20"></path></g><g>
<path d="M40 48h0.0"></path><path d="M391.5 48h0.0"></path><path d="M40.0 48a10 10 0 0 0 10 -10v-8a10 10 0 0 1 10 -10"></path><g>
<path d="M60.0 20h311.5"></path></g><path d="M371.5 20a10 10 0 0 1 10 10v8a10 10 0 0 0 10 10"></path><path d="M40.0 48h20"></path><g>
<path d="M60.0 48h0.0"></path><path d="M371.5 48h0.0"></path><g class="terminal ">
<path d="M60.0 48h0.0"></path><path d="M156.5 48h0.0"></path><rect height="22" rx="10" ry="10" width="96.5" x="60.0" y="37"></rect><text x="108.25" y="52">&#60;MapProp></text></g><path d="M156.5 48h10"></path><g>
<path d="M166.5 48h0.0"></path><path d="M371.5 48h0.0"></path><path d="M166.5 48a10 10 0 0 0 10 -10v0a10 10 0 0 1 10 -10"></path><g>
<path d="M186.5 28h165.0"></path></g><path d="M351.5 28a10 10 0 0 1 10 10v0a10 10 0 0 0 10 10"></path><path d="M166.5 48h20"></path><g>
<path d="M186.5 48h0.0"></path><path d="M351.5 48h0.0"></path><path d="M186.5 48h10"></path><g>
<path d="M196.5 48h0.0"></path><path d="M341.5 48h0.0"></path><g class="terminal ">
<path d="M196.5 48h0.0"></path><path d="M225.0 48h0.0"></path><rect height="22" rx="10" ry="10" width="28.5" x="196.5" y="37"></rect><text x="210.75" y="52">,</text></g><path d="M225.0 48h10"></path><path d="M235.0 48h10"></path><g class="terminal ">
<path d="M245.0 48h0.0"></path><path d="M341.5 48h0.0"></path><rect height="22" rx="10" ry="10" width="96.5" x="245.0" y="37"></rect><text x="293.25" y="52">&#60;MapProp></text></g></g><path d="M341.5 48h10"></path><path d="M196.5 48a10 10 0 0 0 -10 10v0a10 10 0 0 0 10 10"></path><g>
<path d="M196.5 68h145.0"></path></g><path d="M341.5 68a10 10 0 0 0 10 -10v0a10 10 0 0 0 -10 -10"></path></g><path d="M351.5 48h20"></path></g></g><path d="M371.5 48h20"></path></g><path d="M 391.5 48 h 20 m -10 -10 v 20 m 10 -20 v 20"></path></g></svg>